<?xml version="1.0" standalone="no"?>
<!DOCTYPE svg PUBLIC "-//W3C//DTD SVG 20010904//EN"
 "http://www.w3.org/TR/2001/REC-SVG-20010904/DTD/svg10.dtd">
<svg version="1.0" xmlns="http://www.w3.org/2000/svg"
 width="992.000000pt" height="992.000000pt" viewBox="0 0 992.000000 992.000000"
 preserveAspectRatio="xMidYMid meet">
<metadata>
Created by potrace 1.14, written by Peter Selinger 2001-2017
</metadata>
<g transform="translate(0.000000,992.000000) scale(0.100000,-0.100000)"
fill="#000000" stroke="none">
<path d="M3508 9915 c-2 -2 -40 -6 -85 -9 -45 -4 -90 -8 -100 -10 -10 -2 -38
-7 -63 -10 -56 -8 -100 -15 -120 -21 -8 -2 -31 -7 -50 -10 -55 -9 -147 -34
-250 -68 -52 -17 -97 -31 -100 -32 -3 -1 -14 -5 -25 -10 -11 -4 -33 -12 -50
-19 -44 -16 -289 -137 -295 -144 -6 -8 -39 -30 -60 -39 -31 -14 -178 -120
-255 -183 -232 -193 -431 -442 -558 -695 -46 -91 -113 -250 -124 -290 -1 -5
-13 -50 -27 -100 -48 -177 -61 -279 -60 -485 2 -202 5 -230 59 -466 11 -48 47
-161 62 -193 8 -18 16 -39 17 -45 6 -29 108 -240 119 -244 4 -2 7 -8 7 -14 0
-9 79 -148 90 -158 3 -3 18 -25 34 -50 32 -50 192 -266 216 -291 8 -9 40 -44
70 -79 173 -200 461 -481 791 -770 34 -30 77 -68 95 -85 17 -16 43 -39 57 -50
21 -17 145 -127 181 -161 6 -5 49 -44 96 -84 47 -41 95 -84 107 -95 53 -49
240 -215 277 -246 16 -13 38 -33 50 -44 12 -11 59 -54 106 -95 47 -41 101 -89
120 -107 19 -17 46 -41 60 -53 42 -36 152 -133 186 -165 29 -26 60 -54 154
-135 14 -12 63 -56 110 -98 46 -42 111 -102 145 -131 178 -161 400 -385 532
-537 93 -107 130 -150 143 -163 50 -52 59 -46 -130 -87 -33 -7 -60 -13 -87
-19 -13 -3 -32 -7 -44 -10 -11 -2 -28 -6 -37 -9 -9 -3 -33 -8 -52 -12 -19 -3
-39 -7 -45 -8 -5 -2 -21 -6 -35 -9 -14 -4 -36 -9 -50 -12 -38 -7 -112 -24
-140 -31 -14 -3 -32 -7 -40 -8 -8 -2 -35 -9 -60 -16 -25 -7 -56 -14 -71 -16
-14 -3 -90 -23 -170 -45 -79 -22 -151 -41 -159 -42 -106 -19 -598 -187 -756
-258 -38 -17 -71 -31 -74 -32 -19 -5 -343 -175 -405 -212 -42 -25 -81 -45 -86
-45 -5 0 -9 -4 -9 -10 0 -5 -5 -10 -11 -10 -9 0 -280 -174 -314 -202 -5 -4
-50 -38 -100 -76 -49 -37 -101 -78 -115 -91 -14 -13 -45 -40 -69 -60 -107 -87
-262 -252 -356 -376 -25 -33 -48 -64 -53 -70 -10 -13 -73 -117 -102 -169 -40
-72 -90 -203 -116 -308 -22 -83 -27 -127 -28 -228 -1 -112 2 -134 28 -213 15
-48 32 -87 37 -87 5 0 9 -7 9 -14 0 -23 95 -132 158 -182 54 -42 197 -121 252
-138 14 -5 30 -10 35 -12 99 -34 301 -78 410 -90 244 -25 651 -25 895 1 19 2
64 6 100 9 36 4 79 8 95 10 17 3 50 7 75 10 49 6 95 13 150 20 40 6 143 23
180 31 14 3 36 7 50 10 14 2 41 7 60 11 19 3 44 8 55 9 11 2 21 4 23 5 1 2 5
3 10 4 25 6 70 17 87 21 95 21 273 82 386 132 98 43 295 144 323 166 6 4 49
33 96 63 46 30 87 58 90 62 3 4 22 18 42 32 21 14 38 28 38 33 0 4 5 7 10 7
23 0 238 202 335 315 28 32 55 63 60 69 6 6 22 27 35 46 13 19 27 37 30 40 11
10 109 166 121 193 7 15 15 27 19 27 4 0 11 10 15 23 4 12 8 24 10 27 1 3 19
41 39 85 20 44 41 89 46 100 37 84 94 326 106 450 11 124 6 326 -10 411 -3 12
-7 39 -10 60 -11 68 -17 97 -47 200 -16 55 -30 109 -32 120 -2 10 -7 27 -12
37 -7 18 1 54 11 44 3 -3 25 1 47 10 23 8 49 16 57 17 15 2 93 24 120 34 8 3
18 6 23 7 4 2 8 3 10 5 1 1 9 3 17 5 8 2 24 6 35 9 11 2 76 24 145 47 69 23
131 42 138 42 6 0 12 4 12 9 0 4 6 8 13 8 13 0 137 46 210 78 46 21 79 35 87
36 20 5 318 159 391 202 50 30 92 54 93 54 9 0 315 210 342 235 7 5 26 21 44
35 135 107 311 274 415 395 33 39 62 72 65 75 28 26 202 277 232 335 8 17 28
53 43 80 112 204 199 482 230 732 2 18 6 37 10 43 3 5 2 10 -4 10 -6 0 -6 11
-1 28 4 16 6 103 5 193 -3 153 -6 200 -21 289 -3 19 -7 46 -9 60 -15 99 -74
323 -95 362 -6 10 -10 24 -10 33 0 8 -11 38 -23 67 -13 29 -37 85 -53 123 -33
81 -128 268 -155 307 -11 14 -19 29 -19 33 0 8 -208 326 -219 335 -3 3 -31 39
-63 80 -31 41 -65 85 -75 96 -10 12 -31 38 -46 57 -16 20 -45 55 -65 78 -20
23 -45 51 -55 63 -191 219 -528 547 -840 816 -16 14 -38 34 -50 45 -12 11 -49
43 -82 70 -33 28 -62 52 -65 55 -4 5 -47 40 -135 111 -108 88 -324 254 -366
281 -14 9 -32 23 -40 30 -14 13 -75 55 -187 129 -30 21 -62 42 -71 48 -9 7
-33 22 -53 34 -20 12 -84 50 -142 85 -58 34 -133 78 -168 97 -138 77 -508 251
-508 238 0 -3 -6 -1 -12 5 -27 22 -446 153 -563 177 -75 15 -193 36 -225 41
-19 2 -44 6 -56 8 -11 2 -52 7 -90 11 -38 4 -78 10 -89 12 -22 5 -482 13 -487
8z m447 -429 c28 -3 70 -9 95 -11 42 -5 162 -23 192 -29 7 -2 31 -6 53 -10 75
-15 200 -47 299 -78 54 -16 104 -31 110 -33 6 -1 20 -5 31 -10 11 -4 61 -23
110 -42 217 -84 525 -238 695 -347 94 -61 331 -219 375 -251 28 -19 66 -46 85
-59 19 -13 44 -32 55 -42 11 -11 47 -39 80 -63 54 -40 254 -200 281 -226 6 -5
31 -26 55 -47 24 -20 55 -46 69 -58 14 -12 52 -45 85 -73 33 -29 82 -72 109
-97 28 -25 56 -49 62 -55 158 -139 495 -475 619 -618 81 -93 187 -222 247
-302 89 -118 228 -328 228 -344 0 -6 5 -11 10 -11 6 0 10 -6 10 -14 0 -7 7
-19 15 -26 8 -7 15 -21 15 -30 0 -10 4 -20 9 -22 11 -4 88 -165 135 -281 50
-125 95 -279 112 -381 2 -17 7 -42 9 -56 27 -157 22 -429 -9 -580 -33 -157
-73 -275 -141 -418 -47 -99 -163 -289 -198 -328 -7 -7 -23 -27 -37 -45 -95
-125 -269 -298 -425 -422 -33 -26 -68 -54 -78 -63 -9 -8 -59 -42 -110 -76 -50
-35 -95 -66 -98 -71 -3 -5 -8 -8 -10 -6 -2 1 -22 -9 -44 -23 -22 -14 -83 -48
-135 -77 -52 -29 -102 -56 -110 -61 -48 -28 -355 -168 -385 -175 -5 -1 -22 -7
-37 -13 -27 -11 -294 -102 -313 -107 -5 -1 -17 -5 -25 -8 -15 -6 -95 -28 -117
-33 -7 -1 -34 -9 -60 -18 -26 -8 -59 -18 -73 -20 -14 -3 -56 -14 -93 -25 l-68
-19 -23 32 c-12 17 -47 65 -76 106 -56 79 -187 243 -236 296 -16 18 -46 52
-68 75 -123 138 -372 380 -600 582 -17 15 -42 38 -56 50 -14 13 -63 57 -110
97 -46 41 -90 80 -96 85 -6 6 -41 37 -79 70 -37 33 -77 69 -89 80 -12 11 -53
47 -91 80 -37 33 -80 71 -95 85 -15 14 -58 52 -96 85 -38 33 -80 71 -95 85
-15 14 -40 36 -56 50 -48 42 -267 234 -279 245 -6 6 -44 39 -84 75 -40 36 -82
74 -94 85 -12 11 -55 49 -96 84 -41 36 -82 72 -91 80 -8 9 -39 36 -68 61 -29
25 -72 63 -96 85 -23 22 -75 69 -116 105 -154 136 -363 341 -477 466 -30 33
-69 75 -86 94 -58 62 -196 240 -255 329 -52 78 -73 113 -141 236 -58 105 -134
321 -160 455 -28 145 -31 366 -5 480 3 14 8 40 11 58 3 19 12 51 19 73 8 22
14 43 15 47 5 75 195 453 242 483 5 3 9 9 9 13 -2 7 -3 5 76 101 56 69 152
167 226 233 39 34 213 162 221 162 2 0 33 17 67 38 59 35 87 49 189 95 44 19
195 73 235 83 17 4 32 8 35 9 3 0 14 4 25 8 11 3 31 8 45 11 14 2 45 9 70 15
25 5 68 13 95 16 28 4 57 8 65 10 8 3 53 7 100 11 47 3 86 7 87 8 5 5 351 -2
398 -8z m1481 -6709 c2 -7 19 -63 38 -125 19 -62 35 -115 35 -117 0 -3 3 -15
6 -28 3 -12 7 -33 9 -47 3 -14 8 -36 12 -50 10 -39 13 -347 4 -383 -5 -17 -11
-45 -13 -62 -36 -238 -207 -554 -422 -775 -223 -230 -424 -368 -770 -526 -31
-14 -234 -83 -264 -89 -9 -2 -74 -17 -146 -33 -71 -17 -148 -33 -170 -36 -22
-3 -51 -8 -65 -10 -45 -8 -105 -18 -130 -21 -14 -1 -47 -5 -75 -9 -213 -26
-444 -40 -685 -40 -159 1 -236 4 -405 19 -26 2 -89 13 -170 29 -112 22 -213
68 -294 136 l-63 53 6 86 c12 145 49 259 129 396 23 39 45 75 49 80 135 173
268 313 407 425 23 19 48 40 54 45 7 6 30 24 52 40 43 32 58 44 78 60 37 30
197 135 206 135 6 0 11 5 11 10 0 6 4 10 9 10 6 0 29 13 53 28 24 16 59 38 78
48 19 10 37 21 40 24 7 7 58 34 206 109 151 77 216 106 227 103 4 -1 7 2 7 8
0 5 7 10 16 10 9 0 30 7 47 15 114 53 671 230 689 219 5 -3 8 -1 8 4 0 5 6 9
13 9 6 1 77 17 157 38 80 20 153 38 163 40 10 2 26 6 35 9 9 3 28 7 42 10 14
2 48 10 75 16 28 6 59 13 70 16 11 2 47 10 80 18 33 9 71 17 85 20 14 2 44 9
67 15 23 6 45 11 50 10 4 -1 15 0 23 4 17 6 103 27 140 33 14 3 32 7 40 9 8 2
29 7 45 10 17 3 46 9 65 14 38 8 43 7 46 -12z"/>
<path d="M7810 2510 c-91 -11 -239 -68 -278 -106 -7 -8 -16 -14 -20 -14 -11 0
-95 -82 -128 -125 -144 -188 -172 -441 -72 -654 40 -85 67 -122 146 -198 65
-63 196 -138 259 -149 15 -3 37 -8 48 -11 16 -5 73 -12 120 -14 6 -1 38 2 71
5 312 30 565 304 567 616 1 52 -1 109 -5 125 -30 154 -106 284 -222 383 -51
43 -184 113 -241 127 -80 19 -164 24 -245 15z m153 -433 c118 -42 176 -202
110 -307 -89 -142 -286 -137 -371 10 -47 80 -20 206 58 267 48 38 140 52 203
30z"/>
</g>
</svg>
